<svg width="728" height="797" viewBox="0 0 728 797" fill="none" xmlns="http://www.w3.org/2000/svg">
<path fill-rule="evenodd" clip-rule="evenodd" d="M880.059 561.52C1009.2 394.658 794.583 353.187 809.696 229.704C824.808 106.22 885.39 -86.539 543.136 9.22721C200.882 104.993 -22.6106 509.882 132.252 651.965C287.115 794.048 750.917 728.381 880.059 561.52Z" fill="#87AEB4" fill-opacity="0.45"/>
<path fill-rule="evenodd" clip-rule="evenodd" d="M409.232 477.346C416.349 480.802 423.466 484.258 430.583 487.714C441.795 493.158 453.201 498.734 462.241 507.296C471.282 515.858 477.749 528.037 476.393 540.391C474.8 554.912 463.284 566.1 452.469 575.963C438.372 588.821 424.275 601.679 410.178 614.537C404 620.172 397.235 628.195 400.562 635.854C409.203 655.742 417.03 678.365 409.173 698.574C406.954 704.28 402.362 710.17 396.227 709.889C391.662 709.68 388.042 706.105 385.106 702.616C373.436 688.748 364.776 672.378 359.89 654.948C353.633 632.628 354.397 606.471 369.623 588.953C381.454 575.341 401.841 566.187 403.1 548.224C380.05 528.721 346.706 522.075 317.9 531.241C289.093 540.408 265.788 565.081 258.351 594.286C254.3 610.191 263.367 626.563 274.52 638.636C285.672 650.71 299.352 660.719 307.933 674.724C325.191 702.89 317.657 738.957 309.582 770.961C306.779 782.067 289.869 783.92 281.451 776.124C273.033 768.327 271.584 755.592 272.476 744.175C273.368 732.758 276.043 721.217 273.799 709.986C268.008 681 233.954 667.767 217.267 643.332C204.62 624.814 202.878 600.585 207.56 578.677C212.243 556.77 222.714 536.587 233.074 516.708C213.796 487.3 205.702 450.798 210.752 416.034C213.3 398.494 190.129 384.998 192.542 367.438C194.468 353.424 210.969 347.096 224.917 344.459C251.464 339.441 278.612 337.585 305.598 338.945C311.632 339.25 314.287 330.516 311.265 325.303C308.243 320.09 302.342 317.407 297.456 313.867C287.611 306.737 281.425 295.494 278.014 283.852C273.637 268.912 273.629 251.949 281.758 238.66C283.79 235.339 287.282 230.416 292.597 235.186C294.191 226.86 311.119 218.857 321.943 223.327C328.43 226.006 335.342 220.512 339.465 214.848C343.587 209.184 347.575 202.344 354.426 200.807C366.693 198.055 374.549 214.411 373.136 226.86C371.723 239.309 366.228 252.461 371.623 263.778C373.674 268.081 377.227 271.806 377.908 276.521C378.499 280.611 377.44 279.016 375.137 288.433C372.834 297.85 367.286 300.875 364.999 306.085C361.478 314.103 362.007 321.147 354.651 328.244C353.413 329.438 355.934 332.175 355.044 334.202C373.161 334.461 386.925 349.515 400.947 360.948C418.386 375.167 439.72 385.115 462.171 387.044C484.621 388.974 508.114 382.41 524.876 367.405C531.438 361.531 547.091 369.205 548.234 360.489C548.452 358.231 547.852 357.259 545.707 356.704C544.596 356.416 541.969 357.014 541.154 355.969C538.764 352.905 552.684 347.623 552.096 351.83C551.945 352.908 551.312 353.704 551.392 354.402C551.626 356.431 552.785 357.057 554.574 357.415C558.347 357.65 563.751 355.073 566.006 351.83C567.517 349.658 566.928 349.082 565.743 348.986C563.805 348.829 560.273 349.956 561.72 347.491C563.499 344.459 568.085 341.584 572.446 344.223C573.388 344.793 573.057 345.899 572.574 346.986C571.688 348.979 570.29 350.907 575.299 349.34C583.037 346.918 583.481 347.371 585.48 347.963C587.48 348.555 590.415 352.069 592.294 355.351C596.161 362.106 600.128 369.19 600.49 376.958C600.852 384.726 596.354 393.315 588.707 394.868C588.639 397.128 589.748 399.258 591.432 400.756C593.265 402.388 597.98 401.394 597.187 402.852C594.614 407.591 588.347 408.806 583.413 407.148C582.059 406.693 585.184 404.361 585.48 402.744C585.954 400.156 585.415 397.37 583.833 395.255C579.37 397.137 574.908 399.019 570.446 400.901C571.741 402.551 571.151 404.509 572.446 406.159C573.669 407.717 576.808 407.322 577.334 409.534C577.906 411.938 573.271 412.947 570.878 413.172C568.254 413.418 564.17 413.687 562.948 411.938C561.559 409.95 565.912 409.313 566.113 407.233C566.333 404.962 565.5 402.535 563.499 401.436C559.667 399.332 554.168 403.207 554.883 407.509C556.685 418.346 552.179 430 543.544 436.83C534.91 443.66 522.497 445.391 512.312 441.184C503.104 437.381 492.903 442.273 483.375 445.189C461.771 451.8 437.121 447.584 418.967 434.173C417.919 449.165 415.038 465.404 405.42 476.458C406.979 477.346 406.177 477.346 409.232 477.346Z" fill="white"/>
<ellipse cx="313.14" cy="309.803" rx="5.25035" ry="5.23308" fill="#F2BE54"/>
<circle cx="350.811" cy="299.303" r="5.25035" fill="#F2BE54"/>
<path fill-rule="evenodd" clip-rule="evenodd" d="M381.473 533.17C379.11 532.111 376.743 531.05 374.361 530.016C356.924 522.452 336.01 517.012 319.557 526.517C317.045 510.524 334.253 498.31 350.088 494.692C354.431 493.7 358.912 492.996 363.394 492.292C375.253 490.43 387.115 488.567 396.424 481.357C410.246 470.653 413.932 451.574 415.148 434.173C433.302 447.584 457.953 451.8 479.556 445.189C481.205 444.685 482.874 444.121 484.555 443.553C492.586 440.841 500.879 438.039 508.494 441.184C518.678 445.391 531.091 443.66 539.726 436.83C548.36 429.999 552.867 418.346 551.065 407.509C550.349 403.207 555.848 399.332 559.681 401.436C561.681 402.535 562.514 404.962 562.295 407.233C562.205 408.164 561.283 408.806 560.417 409.409C559.347 410.154 558.362 410.84 559.13 411.938C560.352 413.687 564.435 413.418 567.059 413.172C569.453 412.947 574.087 411.938 573.515 409.534C573.214 408.266 572.054 407.855 570.889 407.441C570.021 407.133 569.15 406.824 568.628 406.159C567.98 405.334 567.804 404.432 567.628 403.53C567.451 402.628 567.275 401.726 566.627 400.901L580.014 395.255C581.597 397.37 582.136 400.156 581.662 402.744C581.534 403.439 580.884 404.267 580.292 405.021C579.506 406.019 578.823 406.889 579.595 407.148C584.528 408.806 590.796 407.591 593.369 402.852C593.772 402.111 592.75 402.003 591.408 401.862C590.111 401.726 588.514 401.558 587.613 400.756C585.93 399.258 584.821 397.128 584.889 394.868C592.536 393.315 597.033 384.726 596.671 376.958C596.31 369.19 592.343 362.106 588.476 355.351C586.597 352.069 583.661 348.555 581.662 347.963C581.537 347.927 581.419 347.89 581.305 347.855C579.579 347.326 578.738 347.068 571.48 349.34C566.985 350.747 567.65 349.337 568.475 347.592C568.569 347.393 568.665 347.19 568.755 346.986C569.239 345.899 569.57 344.793 568.628 344.223C564.266 341.584 559.681 344.459 557.902 347.491C556.84 349.301 558.461 349.174 560.166 349.041C560.782 348.993 561.41 348.944 561.925 348.986C563.11 349.082 563.699 349.658 562.188 351.83C559.932 355.073 554.528 357.65 550.756 357.415C548.966 357.057 547.808 356.431 547.574 354.402C547.531 354.031 547.69 353.632 547.871 353.178C548.03 352.778 548.207 352.335 548.277 351.83C548.865 347.623 534.946 352.905 537.336 355.969C537.867 356.65 539.167 356.633 540.316 356.619C540.93 356.611 541.501 356.604 541.888 356.704C544.034 357.259 544.634 358.231 544.415 360.489C543.791 365.248 538.841 365.121 533.406 364.98C528.888 364.864 524.036 364.738 521.057 367.405C504.295 382.41 480.803 388.974 458.352 387.044C435.902 385.115 414.568 375.167 397.129 360.948C394.722 358.986 392.323 356.917 389.908 354.834C378.253 344.783 366.233 334.417 351.225 334.202C351.666 333.199 351.271 332.023 350.91 330.945C350.541 329.844 350.207 328.847 350.832 328.244C354.707 324.506 356.686 317.224 358.4 310.918C359.941 305.251 361.267 300.372 363.562 299.562C368.155 297.939 369.502 293.89 371.056 289.22C371.143 288.96 371.23 288.697 371.319 288.433C371.849 286.853 372.322 285.576 372.725 284.488C373.958 281.162 374.535 279.603 374.09 276.521C373.646 273.447 371.981 270.793 370.307 268.126C369.414 266.702 368.518 265.275 367.805 263.778C363.88 255.545 365.718 246.341 367.556 237.142C368.244 233.697 368.932 230.252 369.317 226.86C370.73 214.411 362.874 198.055 350.607 200.807C344.63 202.148 340.832 207.527 337.222 212.639C336.695 213.386 336.172 214.126 335.647 214.848C331.524 220.512 324.612 226.006 318.124 223.327C307.301 218.857 290.373 226.86 288.778 235.186C283.464 230.416 279.971 235.339 277.94 238.66C269.81 251.949 269.819 268.912 274.196 283.852C277.606 295.494 283.792 306.737 293.637 313.867C294.889 314.774 296.207 315.624 297.526 316.475C301.357 318.947 305.198 321.425 307.446 325.303C310.468 330.516 307.813 339.25 301.779 338.945C274.793 337.585 247.646 339.441 221.099 344.459C207.151 347.096 190.65 353.424 188.724 367.438C187.52 376.199 192.684 383.948 197.846 391.693C203.03 399.471 208.21 407.245 206.934 416.034C201.884 450.798 209.977 487.3 229.256 516.708C218.896 536.587 208.425 556.77 203.742 578.677C199.059 600.585 200.802 624.814 213.448 643.332C220.039 652.983 229.338 660.886 238.536 668.702C252.626 680.676 266.477 692.447 269.981 709.986C271.628 718.231 270.624 726.643 269.621 735.05C269.258 738.095 268.894 741.139 268.657 744.175C267.765 755.592 269.215 768.327 277.633 776.124C282.44 780.575 290.015 781.881 296.151 780.114C296.099 781.053 296.045 781.927 295.993 782.749C295.714 787.227 295.531 790.164 296.319 793.646C296.524 794.552 296.858 795.585 297.729 795.916C299.465 796.573 300.623 793.924 300.505 792.126C300.061 785.316 299.21 781.472 298.39 779.302C301.961 777.714 304.762 774.928 305.763 770.961C313.838 738.957 321.372 702.89 304.115 674.724C298.414 665.42 290.462 657.878 282.496 650.324C278.472 646.508 274.444 642.688 270.701 638.636C259.549 626.563 250.482 610.191 254.532 594.286C261.97 565.081 285.275 540.408 314.081 531.241C342.887 522.075 376.231 528.721 399.282 548.224C398.424 560.459 388.692 568.607 378.834 576.861C374.22 580.725 369.577 584.613 365.804 588.953C350.579 606.471 349.815 632.628 356.071 654.948C360.957 672.378 369.617 688.748 381.288 702.616C384.224 706.105 387.844 709.68 392.409 709.889C398.543 710.17 403.136 704.28 405.354 698.574C413.211 678.365 405.385 655.742 396.744 635.854C393.416 628.195 400.182 620.172 406.36 614.537L448.651 575.963C459.465 566.1 470.982 554.912 472.575 540.391C473.93 528.037 467.463 515.858 458.423 507.296C449.382 498.734 437.977 493.158 426.765 487.714L405.413 477.346C412.451 486.36 423.074 491.42 433.534 496.402C435.555 497.364 437.57 498.324 439.551 499.308C451.789 505.389 464.353 514.264 467.155 527.601C470.598 543.986 458.09 559.025 446.493 571.137C431.809 586.475 416.997 601.923 399.552 614.056C393.617 618.185 387.035 622.026 379.801 622.284C372.568 622.543 364.698 618.025 363.562 610.902C362.537 604.471 366.983 598.578 371.164 593.573L402.082 556.566C406.782 550.941 412.971 549.478 420.336 547.736C422.926 547.124 425.662 546.477 428.529 545.602C411.18 546.484 396.408 539.863 381.473 533.17ZM256.34 433.707C257.589 444.908 261.052 456.125 268.075 464.959C275.098 473.794 286.041 479.944 297.341 479.455C301.125 479.292 302.337 473.682 300.09 470.644C298.142 468.009 294.919 466.809 291.795 465.646C291.317 465.469 290.841 465.292 290.373 465.11C286.842 463.745 283.077 461.46 282.44 457.739C292.403 465.463 307.278 466.18 317.943 459.45C321.655 470.066 333.968 476.439 345.112 474.687C356.257 472.934 365.571 464.059 369.268 453.438C369.339 453.235 369.408 453.03 369.478 452.824C370.04 451.171 370.617 449.472 371.893 448.301C373.082 447.21 374.703 446.747 376.26 446.318L406.731 437.922C407.488 437.714 408.346 437.517 409.017 437.923C409.732 438.355 409.93 439.286 410.035 440.113C412.143 456.77 402.759 474.265 387.689 481.774C379.609 485.8 370.375 487.116 361.22 488.42C349.276 490.122 337.466 491.805 328.53 499.463C323.667 503.631 320.293 509.106 316.912 514.592C315.298 517.212 313.681 519.835 311.9 522.32C300.978 537.555 280.918 547.871 263.103 541.918C252.877 538.501 244.929 530.416 238.397 521.865C218.73 496.126 208.35 463.491 209.545 431.164C209.762 425.299 210.367 419.36 212.496 413.887C225.996 429.521 241.607 443.343 258.775 454.864C258.175 451.761 256.018 449.215 253.87 446.89C247.726 440.236 240.944 434.005 234.169 427.781C218.416 413.307 202.703 398.871 195.136 379.243C193.473 374.928 192.243 370.218 193.268 365.71C195.592 355.486 207.651 351.23 217.964 349.155C242.731 344.17 268.008 341.701 293.275 341.798C294.617 357.393 307.64 371.34 323.213 373.394C338.786 375.447 355.198 365.062 359.571 350.029C359.701 349.583 359.822 349.131 359.944 348.678C360.488 346.657 361.037 344.616 362.336 342.999C363.926 341.019 367.16 340.046 369.016 341.781C382.774 354.642 397.211 367.006 413.663 376.203C430.115 385.401 448.808 391.333 467.655 390.501C435.462 402.204 402.556 411.959 369.178 419.695C366.626 420.286 363.465 420.674 361.824 418.638C356.011 411.422 346.53 407.305 337.268 407.972C328.005 408.639 319.218 414.073 314.507 422.047C312.801 424.934 308.545 424.571 305.307 423.668C298.572 421.79 291.641 418.902 287.661 413.172C286.989 412.204 286.407 411.163 285.826 410.125C284.689 408.091 283.555 406.065 281.761 404.613C279.223 402.558 275.898 402.058 272.606 401.562C271.691 401.424 270.778 401.286 269.885 401.116C259.721 399.177 250.721 391.975 246.626 382.505C256.207 376.112 269.146 379.146 279.725 383.719C281.391 384.439 283.061 385.195 284.737 385.954C293.706 390.016 302.857 394.16 312.531 393.275C320.757 392.522 327.937 388.257 335.147 383.973C341.521 380.186 347.919 376.385 355.086 374.984C373.471 371.391 391.518 385.033 400.126 401.614C400.192 401.741 400.258 401.869 400.324 401.997C401.732 404.719 403.255 407.663 406.078 408.806C403.198 392.667 391.031 378.51 375.47 373.19C359.908 367.871 341.582 371.603 329.364 382.581C321.782 389.393 310.262 389.875 300.367 387.371C294.794 385.961 289.483 383.753 284.167 381.543C280.046 379.83 275.922 378.115 271.672 376.771C261.942 373.694 250.704 372.784 242.043 378.169C239.443 372.46 235.965 367.149 231.767 362.48C235.928 386.27 257.704 405.83 281.883 407.494L268.466 412.574C265.331 413.76 262.082 415.021 259.781 417.453C255.842 421.616 255.707 428.02 256.34 433.707ZM249.721 600.111C248.417 606.658 247.702 613.753 250.641 619.751C252.225 622.984 254.755 625.64 257.243 628.252L257.413 628.431C272.376 644.145 286.431 660.717 299.485 678.039C293.689 683.587 287.236 688.454 280.304 692.506C278.373 693.635 276.288 694.732 274.049 694.692C270.713 694.632 268.002 692.119 265.655 689.756C249.263 673.253 233.294 656.334 217.769 639.019C212.833 633.514 207.814 627.75 205.571 620.714C202.719 611.771 204.738 602.096 206.774 592.934C212.387 567.67 218.292 541.716 232.93 520.342C241.153 535.054 256.381 545.673 273.071 548.332C261.499 563.539 253.449 581.391 249.721 600.111ZM354.001 318.449C351.552 323.55 347.422 328.056 342.066 329.925C334.925 332.416 327.071 329.924 320.079 327.042C316.446 325.544 312.775 323.883 309.962 321.147C307.573 318.824 305.937 315.856 304.422 312.893C299.702 303.668 295.802 294.027 292.782 284.119C290.284 275.926 288.997 265.559 295.645 260.133C303.239 265.939 313.452 267.396 322.96 266.295C331.413 265.315 339.512 262.515 347.567 259.73C348.572 259.383 349.577 259.035 350.581 258.692C351.728 258.3 353.086 257.937 354.076 258.635C354.833 259.169 355.101 260.148 355.306 261.05C358.365 274.456 359.256 288.351 357.935 302.036C357.392 307.664 356.449 313.348 354.001 318.449ZM384.51 701.436C370.898 683.354 361.779 661.94 358.189 639.622C356.647 630.039 356.149 619.997 359.354 610.833C362.414 622.836 376.911 630.501 388.603 626.297C391.654 632.561 394.428 638.959 396.915 645.466C403.446 662.561 407.893 682.017 400.659 698.829C398.92 702.871 395.484 707.174 391.119 706.528C388.289 706.11 386.227 703.716 384.51 701.436ZM293.878 234.565C297.319 228.423 304.891 225.303 311.925 225.893C313.567 226.031 315.202 226.239 316.804 226.442C321.881 227.087 326.629 227.691 330.215 225.893C335.674 223.157 337.955 219.353 340.277 215.481C341.827 212.896 343.396 210.281 345.939 207.933C347.549 206.448 349.343 205.022 351.485 204.553C355.867 203.592 360.073 206.917 362.569 210.632C367.925 218.604 368.631 229.455 364.355 238.05C359.645 247.516 349.935 253.44 340.221 257.676C333.228 260.726 325.827 263.2 318.194 263.357C310.561 263.514 302.619 261.106 297.356 255.596C292.093 250.085 290.156 241.206 293.878 234.565ZM272.357 732.716C272.03 730.298 271.772 727.597 273.245 725.647C279.28 726.189 285.509 724.01 289.88 719.827C288.551 717.094 284.435 717.279 281.836 718.866C280.838 719.475 279.922 720.223 279.008 720.969C277.541 722.166 276.081 723.358 274.303 723.96C272.583 722.265 272.891 719.272 274.321 717.329C275.752 715.385 277.998 714.238 280.162 713.16L293.784 706.372C291.167 703.79 286.804 703.757 283.464 705.301C280.124 706.845 277.568 709.648 275.108 712.378C272.378 707.626 274.327 700.807 279.16 698.201L296.807 688.685C298.178 687.945 299.632 687.185 301.19 687.231C304.564 687.332 306.6 690.971 307.523 694.206C310.193 703.564 309.379 713.512 308.542 723.205C307.312 737.459 306.062 751.823 302.05 765.56C300.667 770.295 298.485 775.452 293.891 777.288C288.908 779.279 283.047 776.256 280.067 771.807C277.087 767.357 276.295 761.85 275.578 756.548L272.357 732.716ZM507.63 409.534C509.54 409.301 511.196 407.101 510.264 405.423L503.704 393.599C502.839 392.041 501.955 390.418 501.84 388.641C501.725 386.865 502.615 384.89 504.314 384.341C506.747 383.555 508.984 385.899 510.392 388.026C513.359 392.507 515.945 397.237 518.116 402.151C520.691 398.732 517.878 394.009 515.307 390.587C512.737 387.164 510.487 381.915 513.702 379.084C516.878 376.288 521.924 379.154 524.356 382.612C525.634 384.428 526.684 386.443 527.731 388.45C529.758 392.338 531.77 396.198 535.393 398.531C536.957 397.578 536.178 395.19 535.23 393.626L523.073 373.575C521.986 371.782 523.782 369.35 525.863 369.047C527.943 368.745 529.951 369.853 531.689 371.032C540.049 376.703 546.706 385.384 548.277 395.339C549.848 405.293 545.583 416.352 536.816 421.377C534.165 422.897 531.212 423.844 528.209 424.426C509.934 427.966 489.933 416.308 484.074 398.701C483.178 396.007 482.961 392.326 485.506 391.05C487.446 390.077 489.789 391.233 491.405 392.679C493.739 394.768 495.407 397.442 497.076 400.117C498.683 402.694 500.292 405.272 502.497 407.331C503.902 408.643 505.719 409.767 507.63 409.534ZM316.985 429.317C319.23 429.386 321.557 429.457 323.423 430.662C325.482 431.99 326.379 435.352 324.429 436.834C323.691 437.395 322.734 437.558 321.817 437.705C313.3 439.066 303.583 440.124 296.961 434.615C295.473 435.292 295.038 437.333 295.646 438.846C296.253 440.36 297.606 441.438 298.959 442.355C304.968 446.426 312.161 448.738 319.425 448.934C314.668 453.039 307.705 454.436 301.724 452.485C299.376 451.719 296.073 450.845 295.035 453.079C299.641 457.466 306.672 457.803 313.043 457.886C301.66 463.291 286.726 459.771 278.98 449.857C278.428 449.151 277.184 449.512 276.746 450.292C276.308 451.073 276.427 452.033 276.559 452.918C277.229 457.422 278.149 462.375 281.738 465.195C283.637 466.688 285.993 467.338 288.351 467.989C289.292 468.248 290.233 468.508 291.145 468.821C294.345 469.919 297.651 472.33 297.682 475.702C287.376 476.587 277.287 470.767 271.048 462.546C264.808 454.325 261.942 444.019 260.621 433.797C260.279 431.154 260.038 428.419 260.809 425.867C262.343 420.787 267.379 417.717 272.021 415.118C275.388 413.233 280.031 411.496 282.701 414.275C291.403 423.331 303.72 428.838 316.295 429.294C316.524 429.302 316.754 429.309 316.985 429.317ZM339.09 447.576L470.981 411.196C476.725 409.612 483.523 408.227 488.119 412.007C435.899 428.086 383.011 442.009 329.634 453.727C326.728 454.365 322.586 454.237 322.079 451.316C323.834 451.38 323.827 449.421 323.819 447.349C323.812 445.309 323.805 443.159 325.477 442.724L479.175 402.726C480.104 402.484 481.284 402.322 481.854 403.092C482.781 404.344 480.884 405.743 479.38 406.159L332.792 446.765C334.122 448.586 336.911 448.177 339.09 447.576ZM487.795 437.093C478.28 443.446 466.2 445.114 454.825 443.77C443.451 442.426 432.608 438.301 422.067 433.835L485.17 416.211C487.382 415.593 490.113 415.107 491.673 416.787C504.478 430.572 527.777 433.032 543.197 422.227C541.398 430.806 533.612 437.784 524.861 438.66C519.876 439.159 514.967 437.87 510.082 436.587C508.787 436.247 507.493 435.907 506.201 435.601C500.033 434.143 493.06 433.577 487.795 437.093ZM313.413 331.528C314.314 330.243 316.254 329.534 317.503 330.488C324.826 336.08 335.006 337.731 343.73 334.742C346.515 333.788 349.683 335.763 350.832 338.465C351.982 341.166 351.518 344.296 350.508 347.052C347.433 355.444 339.156 361.687 330.215 362.359C321.274 363.03 312.151 358.094 307.848 350.257C306.519 347.837 306.076 344.045 308.638 343.002C311.194 341.961 311.926 338.755 312.203 336.018L312.211 335.935C312.366 334.4 312.528 332.791 313.413 331.528ZM557.264 398.707C556.234 398.985 555.144 399.258 554.113 398.983C553.082 398.708 552.174 397.676 552.433 396.644C561.656 395.185 570.559 391.751 578.364 386.642C581.404 384.652 584.631 381.184 583.096 377.898C582.079 375.719 579.349 374.881 576.939 374.979C573.449 375.121 570.197 376.681 567.06 378.21L550.135 386.459C549.349 385.53 549.675 384.037 550.507 383.148C551.309 382.292 552.447 381.853 553.546 381.429L553.668 381.381C561.351 378.41 568.509 374.096 574.718 368.696C576.536 367.114 575.591 363.855 573.515 362.629C571.439 361.402 568.83 361.644 566.457 362.085C559.574 363.366 552.95 366.012 547.085 369.824C544.198 371.7 540.099 373.778 537.738 371.276C544.112 364.839 552.849 361.403 561.314 358.142L577.694 351.83C578.832 351.392 580.064 350.946 581.246 351.248C582.856 351.658 583.799 353.28 584.528 354.767C588.665 363.209 591.711 372.18 593.567 381.391C593.837 382.727 594.06 384.204 593.369 385.38C592.743 386.447 591.522 386.993 590.376 387.465C579.594 391.909 568.526 395.667 557.264 398.707ZM479.797 399.271C479.184 399.921 478.269 400.175 477.402 400.401L326.983 439.643C329.318 434.023 336.182 432.1 342.146 430.803C383.649 421.778 424.304 409.331 464.916 396.898C467.225 396.191 469.535 395.484 471.844 394.778C473.848 394.165 476.03 393.555 477.993 394.287C479.956 395.02 481.233 397.749 479.797 399.271ZM276.213 249.609C277.134 246.603 278.641 242.45 280.998 240.362C282.2 239.297 283.828 238.161 285.275 238.861C286.184 239.302 286.63 240.319 287.003 241.255C287.561 242.656 288.357 244.534 289.153 246.411C289.949 248.289 290.746 250.167 291.303 251.567C292.086 253.531 292.842 256.584 291.408 257.576C285.275 261.818 286.67 277.305 289.417 284.431C290.073 286.132 290.635 289.619 290.07 292.161C289.504 294.702 286.67 296.989 284.352 295.787C283.022 295.098 280.913 291.445 280.15 290.122C280.08 290.001 280.021 289.9 279.975 289.822C268.677 270.558 274.94 253.157 276.068 250.025C276.138 249.83 276.188 249.691 276.213 249.609ZM325.78 458.191C335.825 456.337 345.766 453.926 355.542 450.975C355.693 450.929 355.845 450.883 355.997 450.837C359.04 449.916 362.128 448.981 365.304 448.997C364.905 454.005 362.113 458.644 358.283 461.911C354.453 465.179 349.657 467.169 344.745 468.301C341.02 469.159 337.093 469.545 333.391 468.592C329.69 467.639 326.237 465.174 324.83 461.632C324.326 460.363 324.433 458.44 325.78 458.191ZM338.232 428.314C331.826 429.218 325.055 428.755 319.288 425.832C318.069 425.214 318.701 423.356 319.562 422.297C323.989 416.854 330.695 413.313 337.701 412.717C344.707 412.122 351.918 414.481 357.207 419.099C358.081 419.862 358.969 421.07 358.379 422.068C358.068 422.593 357.446 422.835 356.87 423.041C350.78 425.219 344.639 427.409 338.232 428.314ZM318.495 369.103C312.799 367.324 308.342 362.806 305.086 357.822C303.111 354.8 301.496 351.572 299.88 348.342C298.83 346.243 297.78 344.144 296.631 342.101C298.742 341.752 300.796 343.185 301.966 344.97C302.802 346.244 303.309 347.686 303.815 349.128C304.018 349.706 304.221 350.285 304.446 350.852C308.657 361.507 321.2 367.896 332.495 365.784C343.791 363.672 352.951 353.758 354.909 342.475C355.115 341.289 355.489 339.822 356.673 339.587C357.953 340.652 358.01 342.577 357.784 344.223C356.145 356.169 345.276 365.159 333.664 368.553C328.737 369.993 323.395 370.634 318.495 369.103ZM544.293 376.256C551.41 370.721 559.799 366.819 568.628 364.938C569.688 364.712 571.278 364.944 571.183 366.02C571.153 366.36 570.931 366.649 570.712 366.912C566.327 372.183 559.907 375.268 553.695 378.195C551.955 379.015 550.119 379.854 548.198 379.736C546.276 379.617 544.29 378.174 544.293 376.256ZM575.094 378.909C576.008 378.618 577.009 378.345 577.908 378.68C578.807 379.016 579.401 380.247 578.768 380.966C573.32 387.164 565.167 390.223 557.212 392.475C555.132 393.064 552.074 393.049 551.72 390.923C558.768 385.66 566.704 381.581 575.094 378.909ZM361.116 288.104C361.576 285.267 362.125 281.878 362.125 279.687C362.125 276.675 362.584 272.993 365.401 271.92C368.102 270.892 371.155 273.359 371.675 276.193C372.195 279.027 368.982 290.469 367.387 292.872C366.658 293.97 365.81 295.065 364.61 295.617C363.411 296.169 361.777 295.991 361.043 294.896C360.66 294.327 360.574 293.615 360.509 292.933C360.444 292.249 360.752 290.35 361.116 288.104ZM361.18 252.461C361.321 252.662 361.382 252.907 361.438 253.146C362.608 258.096 363.062 263.214 362.782 268.291C361.439 268.893 360.328 267.108 359.933 265.695L358.246 259.651C357.582 257.272 357.047 254.361 358.82 252.636C359.464 252.009 360.666 251.725 361.18 252.461ZM290.161 306.318C288.417 305.117 287.003 304.143 287.003 301.172C287.003 297.657 290.815 294.231 291.646 294.896C294.667 297.315 300.095 309.31 300.367 313.162C298.094 312.237 296.419 310.976 293.36 308.673C292.694 308.171 291.963 307.621 291.145 307.014C290.811 306.765 290.48 306.538 290.161 306.318ZM309.985 443.353L316.145 442.054C316.914 441.893 317.847 441.782 318.361 442.373C319.352 443.514 317.401 444.954 315.888 444.982C313.818 445.021 311.74 444.447 309.985 443.353ZM496.987 386.953C498.102 387.079 499.043 388.497 498.31 389.343L498.242 389.419C497.28 390.152 496.172 390.925 494.974 390.753C493.775 390.581 492.931 388.831 493.923 388.139C494.842 387.498 495.873 386.827 496.987 386.953ZM505.85 405.305L504.45 405.101L504.314 405.088L501.348 400.541C503.949 399.702 506.847 402.769 505.85 405.305ZM499.335 397.099C498.195 397.154 497.281 395.738 497.803 394.727C498.325 393.716 500.013 393.635 500.631 394.591C501.248 395.547 500.475 397.044 499.335 397.099ZM343.839 248.808L333.13 253.86C324.949 257.72 314.672 256.72 307.394 251.356C306.367 251.118 305.477 252.342 305.65 253.378C305.824 254.414 306.669 255.198 307.516 255.824C313.383 260.157 321.406 260.7 328.483 258.904C335.56 257.108 341.908 253.242 348.057 249.316C347.611 247.761 345.306 248.116 343.839 248.808ZM333.771 272.248C332.891 273.032 331.368 271.967 331.382 270.791C331.396 269.615 332.354 268.669 333.341 268.024C337.481 265.318 343.416 265.738 347.131 269C346.311 270.343 344.395 270.031 342.781 269.769C342.654 269.748 342.53 269.728 342.408 269.709C339.343 269.229 336.083 270.187 333.771 272.248ZM313.938 276.693C315.343 276.373 316.83 275.302 316.696 273.872C316.584 272.667 315.367 271.867 314.197 271.543C311.437 270.778 308.269 271.772 306.448 273.974C304.627 276.177 304.253 279.466 305.535 282.018C306.152 281.468 306.654 280.792 307.154 280.119C307.896 279.12 308.632 278.129 309.727 277.574C310.555 277.154 311.483 277.042 312.414 276.93H312.414C312.927 276.868 313.44 276.806 313.938 276.693ZM341.903 292.557C343.602 292.533 344.749 290.784 345.176 289.145C346.054 285.774 345.16 281.996 342.864 279.371C341.824 278.183 340.052 277.194 338.729 278.059C338.32 278.327 338.026 278.738 337.789 279.165C336.13 282.153 336.961 285.889 338.251 289.053C338.929 290.716 340.102 292.583 341.903 292.557ZM320.418 292.565L319.912 287.308C319.72 285.308 319.29 282.956 317.461 282.11C314.962 280.954 312.322 283.723 311.667 286.39C310.963 289.254 311.369 292.374 312.783 294.964C314.065 297.313 317.256 299.282 319.295 297.542C320.646 296.39 320.588 294.328 320.418 292.565ZM316.197 686.536C330.284 686.118 344.371 685.706 358.459 685.299C360.007 685.255 361.668 685.241 362.953 686.103C364.144 686.902 364.795 688.429 364.546 689.838L323.19 690.613C321.654 690.642 320.064 690.661 318.651 690.06C317.238 689.459 316.045 688.059 316.197 686.536ZM330.668 309.576C329.158 309.146 329.869 306.913 330.579 305.517C332.873 301.008 331.581 295.478 329.284 290.97L329.227 290.859C328.717 289.86 328.173 288.794 328.354 287.694C328.542 286.554 329.984 285.605 330.886 286.332C331.157 286.551 331.322 286.871 331.478 287.182C333.203 290.605 334.894 294.124 335.456 297.913C336.018 301.702 335.294 305.861 332.686 308.676C332.159 309.245 331.415 309.788 330.668 309.576ZM332.92 323.936C339.991 322.807 345.663 315.946 345.42 308.815C345.406 308.39 345.368 307.949 345.149 307.585C344.535 306.564 342.865 306.802 342.077 307.696C341.429 308.432 341.182 309.407 340.939 310.369L340.939 310.371L340.939 310.372C340.886 310.578 340.835 310.784 340.779 310.986C339.834 314.419 337.481 317.444 334.382 319.215C334.231 319.301 334.077 319.386 333.922 319.471C333.017 319.969 332.086 320.481 331.611 321.378C331.055 322.428 331.744 324.124 332.92 323.936ZM376.095 753.422C376.397 761.892 377.341 788.769 376.238 793.646C376.033 794.552 375.699 795.585 374.827 795.915C373.092 796.573 372.073 793.975 372.052 792.125C371.877 777.131 371.702 759.512 371.527 741.892C371.353 724.273 371.178 706.654 371.003 691.659C373.881 691.659 374.827 701.777 374.827 708.311C374.827 730.266 376.095 753.422 376.095 753.422ZM277.061 567.201C276.64 566.956 276.15 566.711 275.647 566.459C273.642 565.456 271.437 564.353 272.597 562.799C303.286 564.123 334.046 563.816 364.702 561.88C373.384 561.331 383.178 560.065 388.339 553.087C388.545 552.807 388.745 552.519 388.944 552.23C389.631 551.235 390.32 550.235 391.33 549.59C392.632 548.758 394.717 548.863 395.368 550.262C394.449 557.743 387.412 563.979 379.848 564.016C376.538 564.032 375.417 568.337 374.997 571.608C374.578 574.879 372.313 579.069 369.207 577.931C369.991 575.249 370.499 572.487 370.719 569.702C370.793 568.768 370.774 567.684 370.049 567.088C369.486 566.625 368.685 566.623 367.956 566.644L286.957 568.946C286.443 568.961 285.877 568.996 285.511 569.355C285.063 569.792 285.104 570.509 285.177 571.13L290.926 619.966C291.052 621.041 291.49 622.413 292.576 622.419L338.494 622.671C340.934 622.685 344.408 624.543 342.917 626.469C342.307 627.257 341.161 627.329 340.163 627.333L293.432 627.522C291.459 627.53 290.901 630.203 290.974 632.167L291.717 652.263C286.104 648.277 285.719 640.277 285.68 633.41C285.565 613.397 283.77 593.393 280.319 573.678C279.888 571.217 279.228 568.458 277.061 567.201Z" fill="#00160A"/>
<path fill-rule="evenodd" clip-rule="evenodd" d="M381.033 662.069C382.956 657.724 387.436 654.62 392.193 654.335C393.429 654.261 394.833 654.443 395.588 655.421C396.343 656.4 395.695 658.258 394.467 658.098C391.518 657.712 388.575 659.211 386.506 661.34C384.437 663.468 383.087 666.171 381.769 668.828C379.877 667.284 380.046 664.299 381.033 662.069Z" fill="#00160A"/>
<path fill-rule="evenodd" clip-rule="evenodd" d="M593.156 248.974C595.689 249.213 598.035 247.75 600.135 246.318C605.972 242.335 612.259 236.906 611.875 229.865C611.754 227.629 610.945 225.525 610.136 223.419C609.79 222.517 609.443 221.616 609.15 220.703C607.621 215.936 607.564 210.909 607.507 205.87C607.461 201.737 607.414 197.595 606.554 193.58C606.246 192.14 605.629 190.504 604.211 190.095C603.411 189.864 602.56 190.098 601.762 190.332L576.263 197.792C571.463 199.196 570.435 205.409 570.297 210.395L569.923 223.96C568.408 224.149 566.969 223.557 565.53 222.965C564.981 222.739 564.432 222.513 563.879 222.33C558.431 220.532 551.842 223.555 549.668 228.851C547.493 234.146 550.065 240.908 555.213 243.435C560.362 245.962 567.305 243.87 570.189 238.923C572.147 235.564 572.262 231.485 572.327 227.6L572.447 220.305C572.492 217.579 575.56 216.068 578.153 215.201C586.139 212.531 594.199 210.081 602.321 207.854C603.123 207.634 604.121 207.469 604.669 208.093C604.966 208.431 605.03 208.906 605.082 209.351L606.194 218.902C606.358 220.318 606.198 222.222 604.8 222.523C598.049 223.973 592.047 228.57 588.902 234.7C587.562 237.312 586.716 240.311 587.31 243.185C587.904 246.058 590.227 248.699 593.156 248.974ZM603.47 194.343C603.755 194.632 603.837 195.057 603.906 195.455L604.68 199.938C604.885 201.122 605.078 202.394 604.562 203.481C603.748 205.198 601.586 205.715 599.71 206.084C595.376 206.936 591.098 208.067 586.912 209.467C583.413 210.638 579.981 211.994 576.551 213.351C576.261 213.466 575.971 213.58 575.681 213.695C574.867 214.016 573.745 214.248 573.279 213.512C573.162 213.327 573.113 213.11 573.073 212.896C572.255 208.548 574.269 203.806 577.976 201.352C580.018 200 582.432 199.336 584.8 198.694L601.443 194.175C602.131 193.989 602.97 193.839 603.47 194.343ZM569.89 230.093C569.82 234.295 568.805 239.099 565.067 241.133C562.101 242.746 558.23 241.971 555.539 239.944C552.378 237.565 550.643 232.826 552.953 229.637C553.915 228.309 555.418 227.448 556.973 226.885C560.547 225.591 564.63 225.721 568.111 227.24C568.666 227.482 569.234 227.781 569.555 228.289C569.888 228.815 569.9 229.473 569.89 230.093ZM143.661 237.236C144.073 238.502 145.87 238.453 147.17 238.149L158.992 235.384C158.663 232.315 158.064 229.274 157.207 226.307C156.954 225.433 156.65 224.519 155.962 223.92C154.897 222.994 153.303 223.122 151.9 223.304L133.741 225.659C132.495 225.821 130.831 226.629 131.305 227.789C135.463 237.952 138.741 248.472 141.094 259.194C141.544 261.245 141.468 264.126 139.41 264.576C133.449 265.879 128.349 270.54 126.534 276.345C125.975 278.131 125.721 280.114 126.444 281.84C126.836 282.776 127.493 283.58 128.229 284.28C131.765 287.635 137.403 288.569 141.837 286.532C146.272 284.495 149.221 279.616 148.956 274.759C148.856 272.924 148.343 271.139 147.834 269.373L136.226 229.11L151.595 227.908C153.139 227.994 153.791 230.18 152.976 231.489C152.16 232.798 150.54 233.342 149.024 233.646C148.806 233.69 148.585 233.731 148.364 233.772C147.051 234.019 145.714 234.27 144.649 235.053C143.96 235.559 143.397 236.424 143.661 237.236Z" fill="#153E5C"/>
<path fill-rule="evenodd" clip-rule="evenodd" d="M378.502 649.047C378.041 649.644 376.999 649.473 376.555 648.863C376.11 648.253 376.15 647.408 376.392 646.693C376.826 645.414 377.807 644.398 378.836 643.519C381.421 641.31 384.498 639.677 387.78 638.772C389.074 638.416 390.583 638.209 391.654 639.015C392.724 639.822 392.552 641.974 391.215 642.093C386.261 642.536 381.537 645.119 378.502 649.047Z" fill="#00160A"/>
</svg>
