<svg width="44" height="44" viewBox="0 0 44 44" fill="none" xmlns="http://www.w3.org/2000/svg">
<path d="M39.0844 36.7168L27.9254 25.5578C29.657 23.3191 30.5938 20.582 30.5938 17.7031C30.5938 14.257 29.2488 11.0258 26.8168 8.58945C24.3848 6.15312 21.1449 4.8125 17.7031 4.8125C14.2613 4.8125 11.0215 6.15742 8.58945 8.58945C6.15312 11.0215 4.8125 14.257 4.8125 17.7031C4.8125 21.1449 6.15742 24.3848 8.58945 26.8168C11.0215 29.2531 14.257 30.5938 17.7031 30.5938C20.582 30.5938 23.3148 29.657 25.5535 27.9297L36.7125 39.0844C36.7452 39.1171 36.7841 39.1431 36.8268 39.1608C36.8696 39.1785 36.9154 39.1876 36.9617 39.1876C37.008 39.1876 37.0538 39.1785 37.0966 39.1608C37.1394 39.1431 37.1782 39.1171 37.2109 39.0844L39.0844 37.2152C39.1171 37.1825 39.1431 37.1437 39.1608 37.1009C39.1785 37.0581 39.1876 37.0123 39.1876 36.966C39.1876 36.9197 39.1785 36.8739 39.1608 36.8311C39.1431 36.7884 39.1171 36.7495 39.0844 36.7168ZM24.5094 24.5094C22.6875 26.327 20.2727 27.3281 17.7031 27.3281C15.1336 27.3281 12.7188 26.327 10.8969 24.5094C9.0793 22.6875 8.07812 20.2727 8.07812 17.7031C8.07812 15.1336 9.0793 12.7145 10.8969 10.8969C12.7188 9.0793 15.1336 8.07812 17.7031 8.07812C20.2727 8.07812 22.6918 9.075 24.5094 10.8969C26.327 12.7188 27.3281 15.1336 27.3281 17.7031C27.3281 20.2727 26.327 22.6918 24.5094 24.5094Z" fill="#153E5C"/>
</svg>
