<svg width="1440" height="324" viewBox="0 0 1440 324" fill="none" xmlns="http://www.w3.org/2000/svg">
<path fill-rule="evenodd" clip-rule="evenodd" d="M0 72L39.6 78C80.4 84 159.6 96 240 132C320.4 168 399.6 228 480 210C560.4 192 639.6 96 720 78C800.4 60 879.6 120 960 144C1040.4 168 1119.6 156 1200 126C1280.4 96 1359.6 48 1400.4 24L1440 0V324H1400.4C1359.6 324 1280.4 324 1200 324C1119.6 324 1040.4 324 960 324C879.6 324 800.4 324 720 324C639.6 324 560.4 324 480 324C399.6 324 320.4 324 240 324C159.6 324 80.4 324 39.6 324H0V72Z" fill="#C9DBDD"/>
<path fill-rule="evenodd" clip-rule="evenodd" d="M1316.94 202.392C1311.71 202.245 1309.57 201.492 1304.8 203.911C1282.67 215.117 1298.32 234.387 1318.06 221.317C1329.11 214.004 1321.2 194.897 1320.3 186.131C1319.41 177.438 1318.35 172.422 1324.42 173.831C1339.94 177.438 1336.13 191.608 1336.75 197.852C1337.03 200.621 1340.75 204.237 1343.3 200.507C1349.61 191.288 1347.5 176.329 1339.94 168.341C1336.4 164.6 1331.27 162.693 1327.6 159.079C1324.03 155.566 1322.2 150.447 1318.43 147.156C1313.06 142.464 1311.75 153.517 1311.71 154.35C1311.01 170.024 1310.45 184.397 1315.63 198.796L1316.94 202.392Z" fill="#153E5C"/>
<path fill-rule="evenodd" clip-rule="evenodd" d="M1338.98 249.704C1340.63 243.702 1344.81 251.188 1345.08 253.111C1345.38 255.28 1339.96 269.527 1345.88 265.554C1357.09 258.026 1346.83 249.322 1343.86 241.279C1342.77 238.311 1343.81 234.904 1343.05 231.837C1342.91 231.299 1341.91 231.172 1341.42 231.439C1331.18 236.983 1337.11 253.641 1332.5 258.924C1330.79 260.882 1328.53 257.043 1324.98 256.722C1320.6 256.326 1315.69 257.704 1316.66 263.339C1318.41 273.553 1327.34 278.369 1333.91 264.748C1338.6 255.026 1337.27 255.93 1338.98 249.704Z" fill="#153E5C"/>
<path fill-rule="evenodd" clip-rule="evenodd" d="M133.307 254.541C129.361 254.431 127.749 253.862 124.144 255.687C107.449 264.141 119.262 278.678 134.153 268.818C142.485 263.301 136.522 248.888 135.843 242.274C135.17 235.716 134.371 231.932 138.945 232.995C150.655 235.716 147.784 246.406 148.253 251.116C148.462 253.205 151.264 255.933 153.191 253.12C157.954 246.165 156.362 234.88 150.655 228.854C147.982 226.031 144.116 224.593 141.348 221.867C138.658 219.217 137.273 215.354 134.431 212.872C130.378 209.332 129.389 217.671 129.361 218.299C128.833 230.124 128.411 240.966 132.319 251.829L133.307 254.541Z" fill="#153E5C"/>
<path fill-rule="evenodd" clip-rule="evenodd" d="M68.9338 189.88C70.1791 185.353 73.332 191.001 73.5338 192.451C73.7615 194.088 69.6725 204.835 74.1378 201.837C82.5972 196.158 74.8508 189.592 72.6164 183.525C71.7917 181.286 72.5761 178.716 72.0005 176.402C71.8996 175.996 71.1403 175.901 70.7697 176.101C63.0485 180.284 67.5208 192.851 64.0445 196.836C62.7564 198.313 61.0507 195.417 58.3705 195.175C55.0644 194.876 51.3651 195.916 52.0925 200.167C53.4112 207.872 60.1484 211.505 65.1077 201.23C68.6476 193.895 67.6418 194.578 68.9338 189.88Z" fill="#153E5C"/>
</svg>
